<?xml version="1.0" encoding="UTF-8"?>
<svg version="1.1" xmlns="http://www.w3.org/2000/svg" width="456" height="408">
<path d="M0 0 C13.2 0 26.4 0 40 0 C40 2.64 40 5.28 40 8 C98.08 8 156.16 8 216 8 C216 5.36 216 2.72 216 0 C229.2 0 242.4 0 256 0 C256 2.64 256 5.28 256 8 C269.2 8 282.4 8 296 8 C296 10.64 296 13.28 296 16 C298.64 16 301.28 16 304 16 C304 18.64 304 21.28 304 24 C306.64 24 309.28 24 312 24 C312 26.64 312 29.28 312 32 C314.64 32 317.28 32 320 32 C320 55.76 320 79.52 320 104 C333.2 104 346.4 104 360 104 C360 114.56 360 125.12 360 136 C344.16 136 328.32 136 312 136 C312 215.2 312 294.4 312 376 C309.36 376 306.72 376 304 376 C304 378.64 304 381.28 304 384 C301.36 384 298.72 384 296 384 C296 386.64 296 389.28 296 392 C293.36 392 290.72 392 288 392 C288 394.64 288 397.28 288 400 C277.44 400 266.88 400 256 400 C256 402.64 256 405.28 256 408 C242.8 408 229.6 408 216 408 C216 405.36 216 402.72 216 400 C157.92 400 99.84 400 40 400 C40 402.64 40 405.28 40 408 C26.8 408 13.6 408 0 408 C0 405.36 0 402.72 0 400 C-10.56 400 -21.12 400 -32 400 C-32 397.36 -32 394.72 -32 392 C-34.64 392 -37.28 392 -40 392 C-40 389.36 -40 386.72 -40 384 C-42.64 384 -45.28 384 -48 384 C-48 381.36 -48 378.72 -48 376 C-50.64 376 -53.28 376 -56 376 C-56 296.8 -56 217.6 -56 136 C-69.2 136 -82.4 136 -96 136 C-96 125.44 -96 114.88 -96 104 C-85.44 104 -74.88 104 -64 104 C-64 80.24 -64 56.48 -64 32 C-61.36 32 -58.72 32 -56 32 C-56 29.36 -56 26.72 -56 24 C-53.36 24 -50.72 24 -48 24 C-48 21.36 -48 18.72 -48 16 C-45.36 16 -42.72 16 -40 16 C-40 13.36 -40 10.72 -40 8 C-26.8 8 -13.6 8 0 8 C0 5.36 0 2.72 0 0 Z " fill="#D7943A" transform="translate(96,0)"/>
<path d="M0 0 C50.16 0 100.32 0 152 0 C152 2.64 152 5.28 152 8 C154.64 8 157.28 8 160 8 C160 10.64 160 13.28 160 16 C170.56 16 181.12 16 192 16 C192 13.36 192 10.72 192 8 C194.64 8 197.28 8 200 8 C200 5.36 200 2.72 200 0 C250.16 0 300.32 0 352 0 C352 50.16 352 100.32 352 152 C241.12 152 130.24 152 16 152 C16 154.64 16 157.28 16 160 C26.56 160 37.12 160 48 160 C48 191.68 48 223.36 48 256 C34.8 256 21.6 256 8 256 C8 253.36 8 250.72 8 248 C5.36 248 2.72 248 0 248 C0 166.16 0 84.32 0 0 Z " fill="#C65E13" transform="translate(48,136)"/>
<path d="M0 0 C2.64 0 5.28 0 8 0 C8 5.28 8 10.56 8 16 C10.64 16 13.28 16 16 16 C16 10.72 16 5.44 16 0 C82 0 148 0 216 0 C216 2.64 216 5.28 216 8 C218.64 8 221.28 8 224 8 C224 5.36 224 2.72 224 0 C229.28 0 234.56 0 240 0 C240 23.76 240 47.52 240 72 C216.24 72 192.48 72 168 72 C168 74.64 168 77.28 168 80 C191.76 80 215.52 80 240 80 C240 82.64 240 85.28 240 88 C242.64 88 245.28 88 248 88 C248 90.64 248 93.28 248 96 C163.52 96 79.04 96 -8 96 C-8 93.36 -8 90.72 -8 88 C-5.36 88 -2.72 88 0 88 C0 85.36 0 82.72 0 80 C23.76 80 47.52 80 72 80 C72 77.36 72 74.72 72 72 C48.24 72 24.48 72 0 72 C0 48.24 0 24.48 0 0 Z " fill="#F5CFA0" transform="translate(104,184)"/>
<path d="M0 0 C58.08 0 116.16 0 176 0 C176 34.32 176 68.64 176 104 C154.88 104 133.76 104 112 104 C112 98.72 112 93.44 112 88 C109.36 88 106.72 88 104 88 C104 85.36 104 82.72 104 80 C93.44 80 82.88 80 72 80 C72 82.64 72 85.28 72 88 C69.36 88 66.72 88 64 88 C64 93.28 64 98.56 64 104 C42.88 104 21.76 104 0 104 C0 69.68 0 35.36 0 0 Z " fill="#75350E" transform="translate(136,16)"/>
<path d="M0 0 C15.84 0 31.68 0 48 0 C48 23.76 48 47.52 48 72 C50.64 72 53.28 72 56 72 C56 69.36 56 66.72 56 64 C58.64 64 61.28 64 64 64 C64 66.64 64 69.28 64 72 C66.64 72 69.28 72 72 72 C72 74.64 72 77.28 72 80 C74.64 80 77.28 80 80 80 C80 77.36 80 74.72 80 72 C82.64 72 85.28 72 88 72 C88 82.56 88 93.12 88 104 C109.12 104 130.24 104 152 104 C152 109.28 152 114.56 152 120 C101.84 120 51.68 120 0 120 C0 199.2 0 278.4 0 360 C-2.64 360 -5.28 360 -8 360 C-8 280.8 -8 201.6 -8 120 C-21.2 120 -34.4 120 -48 120 C-48 109.44 -48 98.88 -48 88 C-37.44 88 -26.88 88 -16 88 C-16 64.24 -16 40.48 -16 16 C-13.36 16 -10.72 16 -8 16 C-8 13.36 -8 10.72 -8 8 C-5.36 8 -2.72 8 0 8 C0 5.36 0 2.72 0 0 Z " fill="#D79A3F" transform="translate(48,16)"/>
<path d="M0 0 C23.76 0 47.52 0 72 0 C72 2.64 72 5.28 72 8 C50.88 8 29.76 8 8 8 C8 13.28 8 18.56 8 24 C21.2 24 34.4 24 48 24 C48 26.64 48 29.28 48 32 C50.64 32 53.28 32 56 32 C56 34.64 56 37.28 56 40 C61.28 40 66.56 40 72 40 C72 42.64 72 45.28 72 48 C82.56 48 93.12 48 104 48 C104 45.36 104 42.72 104 40 C109.28 40 114.56 40 120 40 C120 37.36 120 34.72 120 32 C122.64 32 125.28 32 128 32 C128 29.36 128 26.72 128 24 C141.2 24 154.4 24 168 24 C168 18.72 168 13.44 168 8 C146.88 8 125.76 8 104 8 C104 5.36 104 2.72 104 0 C127.76 0 151.52 0 176 0 C176 31.68 176 63.36 176 96 C117.92 96 59.84 96 0 96 C0 64.32 0 32.64 0 0 Z " fill="#75350E" transform="translate(136,296)"/>
<path d="M0 0 C47.52 0 95.04 0 144 0 C144 2.64 144 5.28 144 8 C154.56 8 165.12 8 176 8 C176 5.36 176 2.72 176 0 C223.52 0 271.04 0 320 0 C320 7.92 320 15.84 320 24 C317.36 24 314.72 24 312 24 C312 21.36 312 18.72 312 16 C304.08 16 296.16 16 288 16 C288 18.64 288 21.28 288 24 C285.36 24 282.72 24 280 24 C280 26.64 280 29.28 280 32 C274.72 32 269.44 32 264 32 C264 37.28 264 42.56 264 48 C261.36 48 258.72 48 256 48 C256 45.36 256 42.72 256 40 C190 40 124 40 56 40 C56 45.28 56 50.56 56 56 C53.36 56 50.72 56 48 56 C48 48.08 48 40.16 48 32 C45.36 32 42.72 32 40 32 C40 29.36 40 26.72 40 24 C37.36 24 34.72 24 32 24 C32 21.36 32 18.72 32 16 C24.08 16 16.16 16 8 16 C8 18.64 8 21.28 8 24 C5.36 24 2.72 24 0 24 C0 16.08 0 8.16 0 0 Z " fill="#75350E" transform="translate(64,144)"/>
<path d="M0 0 C7.92 0 15.84 0 24 0 C24 2.64 24 5.28 24 8 C26.64 8 29.28 8 32 8 C32 31.76 32 55.52 32 80 C90.08 80 148.16 80 208 80 C208 56.24 208 32.48 208 8 C213.28 8 218.56 8 224 8 C224 5.36 224 2.72 224 0 C226.64 0 229.28 0 232 0 C232 2.64 232 5.28 232 8 C234.64 8 237.28 8 240 8 C240 13.28 240 18.56 240 24 C242.64 24 245.28 24 248 24 C248 42.48 248 60.96 248 80 C258.56 80 269.12 80 280 80 C280 82.64 280 85.28 280 88 C269.44 88 258.88 88 248 88 C248 90.64 248 93.28 248 96 C234.8 96 221.6 96 208 96 C208 93.36 208 90.72 208 88 C149.92 88 91.84 88 32 88 C32 90.64 32 93.28 32 96 C18.8 96 5.6 96 -8 96 C-8 93.36 -8 90.72 -8 88 C-18.56 88 -29.12 88 -40 88 C-40 85.36 -40 82.72 -40 80 C-29.44 80 -18.88 80 -8 80 C-8 58.88 -8 37.76 -8 16 C-5.36 16 -2.72 16 0 16 C0 10.72 0 5.44 0 0 Z " fill="#D77927" transform="translate(104,312)"/>
<path d="M0 0 C58.08 0 116.16 0 176 0 C176 34.32 176 68.64 176 104 C154.88 104 133.76 104 112 104 C112 98.72 112 93.44 112 88 C109.36 88 106.72 88 104 88 C104 85.36 104 82.72 104 80 C93.44 80 82.88 80 72 80 C72 82.64 72 85.28 72 88 C69.36 88 66.72 88 64 88 C64 93.28 64 98.56 64 104 C42.88 104 21.76 104 0 104 C0 69.68 0 35.36 0 0 Z M8 8 C8 26.48 8 44.96 8 64 C60.8 64 113.6 64 168 64 C168 45.52 168 27.04 168 8 C115.2 8 62.4 8 8 8 Z " fill="#370F02" transform="translate(136,16)"/>
<path d="M0 0 C58.08 0 116.16 0 176 0 C176 5.28 176 10.56 176 16 C197.12 16 218.24 16 240 16 C240 21.28 240 26.56 240 32 C226.8 32 213.6 32 200 32 C200 34.64 200 37.28 200 40 C197.36 40 194.72 40 192 40 C192 42.64 192 45.28 192 48 C186.72 48 181.44 48 176 48 C176 50.64 176 53.28 176 56 C165.44 56 154.88 56 144 56 C144 53.36 144 50.72 144 48 C138.72 48 133.44 48 128 48 C128 45.36 128 42.72 128 40 C125.36 40 122.72 40 120 40 C120 37.36 120 34.72 120 32 C106.8 32 93.6 32 80 32 C80 26.72 80 21.44 80 16 C101.12 16 122.24 16 144 16 C144 13.36 144 10.72 144 8 C120.24 8 96.48 8 72 8 C72 15.92 72 23.84 72 32 C69.36 32 66.72 32 64 32 C64 29.36 64 26.72 64 24 C56.08 24 48.16 24 40 24 C40 29.28 40 34.56 40 40 C37.36 40 34.72 40 32 40 C32 29.44 32 18.88 32 8 C21.44 8 10.88 8 0 8 C0 5.36 0 2.72 0 0 Z " fill="#B97031" transform="translate(64,288)"/>
<path d="M0 0 C15.84 0 31.68 0 48 0 C48 2.64 48 5.28 48 8 C50.64 8 53.28 8 56 8 C56 39.68 56 71.36 56 104 C37.52 104 19.04 104 0 104 C0 69.68 0 35.36 0 0 Z " fill="#370F02" transform="translate(352,16)"/>
<path d="M0 0 C15.84 0 31.68 0 48 0 C48 34.32 48 68.64 48 104 C29.52 104 11.04 104 -8 104 C-8 72.32 -8 40.64 -8 8 C-5.36 8 -2.72 8 0 8 C0 5.36 0 2.72 0 0 Z " fill="#370F02" transform="translate(48,16)"/>
<path d="M0 0 C7.92 0 15.84 0 24 0 C24 2.64 24 5.28 24 8 C26.64 8 29.28 8 32 8 C32 42.32 32 76.64 32 112 C29.36 112 26.72 112 24 112 C24 114.64 24 117.28 24 120 C16.08 120 8.16 120 0 120 C0 117.36 0 114.72 0 112 C-2.64 112 -5.28 112 -8 112 C-8 109.36 -8 106.72 -8 104 C-31.76 104 -55.52 104 -80 104 C-80 101.36 -80 98.72 -80 96 C-56.24 96 -32.48 96 -8 96 C-8 72.24 -8 48.48 -8 24 C-13.28 24 -18.56 24 -24 24 C-24 21.36 -24 18.72 -24 16 C-18.72 16 -13.44 16 -8 16 C-8 13.36 -8 10.72 -8 8 C-5.36 8 -2.72 8 0 8 C0 5.36 0 2.72 0 0 Z " fill="#260A01" transform="translate(352,160)"/>
<path d="M0 0 C13.2 0 26.4 0 40 0 C40 2.64 40 5.28 40 8 C98.08 8 156.16 8 216 8 C216 10.64 216 13.28 216 16 C157.92 16 99.84 16 40 16 C40 39.76 40 63.52 40 88 C37.36 88 34.72 88 32 88 C32 90.64 32 93.28 32 96 C29.36 96 26.72 96 24 96 C24 93.36 24 90.72 24 88 C21.36 88 18.72 88 16 88 C16 85.36 16 82.72 16 80 C13.36 80 10.72 80 8 80 C8 82.64 8 85.28 8 88 C5.36 88 2.72 88 0 88 C0 64.24 0 40.48 0 16 C-13.2 16 -26.4 16 -40 16 C-40 13.36 -40 10.72 -40 8 C-26.8 8 -13.6 8 0 8 C0 5.36 0 2.72 0 0 Z " fill="#D77927" transform="translate(96,0)"/>
<path d="M0 0 C7.92 0 15.84 0 24 0 C24 2.64 24 5.28 24 8 C26.64 8 29.28 8 32 8 C32 10.64 32 13.28 32 16 C34.64 16 37.28 16 40 16 C40 18.64 40 21.28 40 24 C37.36 24 34.72 24 32 24 C32 47.76 32 71.52 32 96 C55.76 96 79.52 96 104 96 C104 98.64 104 101.28 104 104 C80.24 104 56.48 104 32 104 C32 106.64 32 109.28 32 112 C29.36 112 26.72 112 24 112 C24 114.64 24 117.28 24 120 C16.08 120 8.16 120 0 120 C0 117.36 0 114.72 0 112 C-2.64 112 -5.28 112 -8 112 C-8 77.68 -8 43.36 -8 8 C-5.36 8 -2.72 8 0 8 C0 5.36 0 2.72 0 0 Z " fill="#260A01" transform="translate(72,160)"/>
<path d="M0 0 C2.64 0 5.28 0 8 0 C8 2.64 8 5.28 8 8 C10.64 8 13.28 8 16 8 C16 13.28 16 18.56 16 24 C39.76 24 63.52 24 88 24 C88 26.64 88 29.28 88 32 C90.64 32 93.28 32 96 32 C96 34.64 96 37.28 96 40 C11.52 40 -72.96 40 -160 40 C-160 37.36 -160 34.72 -160 32 C-157.36 32 -154.72 32 -152 32 C-152 29.36 -152 26.72 -152 24 C-128.24 24 -104.48 24 -80 24 C-80 18.72 -80 13.44 -80 8 C-77.36 8 -74.72 8 -72 8 C-72 10.64 -72 13.28 -72 16 C-50.88 16 -29.76 16 -8 16 C-8 13.36 -8 10.72 -8 8 C-5.36 8 -2.72 8 0 8 C0 5.36 0 2.72 0 0 Z " fill="#E4AD5C" transform="translate(256,240)"/>
<path d="M0 0 C15.84 0 31.68 0 48 0 C48 29.04 48 58.08 48 88 C45.36 88 42.72 88 40 88 C40 90.64 40 93.28 40 96 C26.8 96 13.6 96 0 96 C0 64.32 0 32.64 0 0 Z " fill="#75350E" transform="translate(352,296)"/>
<path d="M0 0 C15.84 0 31.68 0 48 0 C48 31.68 48 63.36 48 96 C34.8 96 21.6 96 8 96 C8 93.36 8 90.72 8 88 C5.36 88 2.72 88 0 88 C0 58.96 0 29.92 0 0 Z " fill="#75350E" transform="translate(48,296)"/>
<path d="M0 0 C23.76 0 47.52 0 72 0 C72 2.64 72 5.28 72 8 C50.88 8 29.76 8 8 8 C8 34.4 8 60.8 8 88 C60.8 88 113.6 88 168 88 C168 61.6 168 35.2 168 8 C146.88 8 125.76 8 104 8 C104 5.36 104 2.72 104 0 C127.76 0 151.52 0 176 0 C176 31.68 176 63.36 176 96 C117.92 96 59.84 96 0 96 C0 64.32 0 32.64 0 0 Z " fill="#370F02" transform="translate(136,296)"/>
<path d="M0 0 C52.8 0 105.6 0 160 0 C160 7.92 160 15.84 160 24 C141.52 24 123.04 24 104 24 C104 21.36 104 18.72 104 16 C101.36 16 98.72 16 96 16 C96 13.36 96 10.72 96 8 C85.44 8 74.88 8 64 8 C64 10.64 64 13.28 64 16 C61.36 16 58.72 16 56 16 C56 18.64 56 21.28 56 24 C37.52 24 19.04 24 0 24 C0 16.08 0 8.16 0 0 Z " fill="#75350E" transform="translate(144,88)"/>
<path d="M0 0 C66 0 132 0 200 0 C200 2.64 200 5.28 200 8 C202.64 8 205.28 8 208 8 C208 5.36 208 2.72 208 0 C213.28 0 218.56 0 224 0 C224 13.2 224 26.4 224 40 C221.36 40 218.72 40 216 40 C216 37.36 216 34.72 216 32 C213.36 32 210.72 32 208 32 C208 29.36 208 26.72 208 24 C205.36 24 202.72 24 200 24 C200 21.36 200 18.72 200 16 C197.36 16 194.72 16 192 16 C192 13.36 192 10.72 192 8 C136.56 8 81.12 8 24 8 C24 10.64 24 13.28 24 16 C21.36 16 18.72 16 16 16 C16 18.64 16 21.28 16 24 C13.36 24 10.72 24 8 24 C8 21.36 8 18.72 8 16 C5.36 16 2.72 16 0 16 C0 10.72 0 5.44 0 0 Z " fill="#F1B975" transform="translate(120,184)"/>
<path d="M0 0 C7.92 0 15.84 0 24 0 C24 2.64 24 5.28 24 8 C26.64 8 29.28 8 32 8 C32 29.12 32 50.24 32 72 C29.36 72 26.72 72 24 72 C24 69.36 24 66.72 24 64 C21.36 64 18.72 64 16 64 C16 61.36 16 58.72 16 56 C13.36 56 10.72 56 8 56 C8 61.28 8 66.56 8 72 C5.36 72 2.72 72 0 72 C0 69.36 0 66.72 0 64 C-2.64 64 -5.28 64 -8 64 C-8 48.16 -8 32.32 -8 16 C-5.36 16 -2.72 16 0 16 C0 10.72 0 5.44 0 0 Z " fill="#E2CE53" transform="translate(104,312)"/>
<path d="M0 0 C10.56 0 21.12 0 32 0 C32 2.64 32 5.28 32 8 C34.64 8 37.28 8 40 8 C40 21.2 40 34.4 40 48 C37.36 48 34.72 48 32 48 C32 50.64 32 53.28 32 56 C21.44 56 10.88 56 0 56 C0 53.36 0 50.72 0 48 C-2.64 48 -5.28 48 -8 48 C-8 34.8 -8 21.6 -8 8 C-5.36 8 -2.72 8 0 8 C0 5.36 0 2.72 0 0 Z " fill="#E2CE53" transform="translate(208,96)"/>
<path d="M0 0 C50.16 0 100.32 0 152 0 C152 2.64 152 5.28 152 8 C149.36 8 146.72 8 144 8 C144 52.88 144 97.76 144 144 C138.72 144 133.44 144 128 144 C128 141.36 128 138.72 128 136 C130.64 136 133.28 136 136 136 C136 93.76 136 51.52 136 8 C91.12 8 46.24 8 0 8 C0 5.36 0 2.72 0 0 Z " fill="#9D4511" transform="translate(248,136)"/>
<path d="M0 0 C50.16 0 100.32 0 152 0 C152 2.64 152 5.28 152 8 C107.12 8 62.24 8 16 8 C16 50.24 16 92.48 16 136 C18.64 136 21.28 136 24 136 C24 138.64 24 141.28 24 144 C18.72 144 13.44 144 8 144 C8 99.12 8 54.24 8 8 C5.36 8 2.72 8 0 8 C0 5.36 0 2.72 0 0 Z " fill="#9D4511" transform="translate(48,136)"/>
<path d="M0 0 C2.64 0 5.28 0 8 0 C8 2.64 8 5.28 8 8 C10.64 8 13.28 8 16 8 C16 13.28 16 18.56 16 24 C18.64 24 21.28 24 24 24 C24 39.84 24 55.68 24 72 C21.36 72 18.72 72 16 72 C16 69.36 16 66.72 16 64 C5.44 64 -5.12 64 -16 64 C-16 45.52 -16 27.04 -16 8 C-10.72 8 -5.44 8 0 8 C0 5.36 0 2.72 0 0 Z " fill="#E2CE53" transform="translate(328,312)"/>
<path d="M0 0 C13.2 0 26.4 0 40 0 C40 2.64 40 5.28 40 8 C53.2 8 66.4 8 80 8 C80 10.64 80 13.28 80 16 C66.8 16 53.6 16 40 16 C40 29.2 40 42.4 40 56 C37.36 56 34.72 56 32 56 C32 53.36 32 50.72 32 48 C24.08 48 16.16 48 8 48 C8 45.36 8 42.72 8 40 C5.36 40 2.72 40 0 40 C0 26.8 0 13.6 0 0 Z " fill="#D77927" transform="translate(312,0)"/>
<path d="M0 0 C10.56 0 21.12 0 32 0 C32 2.64 32 5.28 32 8 C34.64 8 37.28 8 40 8 C40 23.84 40 39.68 40 56 C26.8 56 13.6 56 0 56 C0 37.52 0 19.04 0 0 Z " fill="#75350E" transform="translate(360,24)"/>
<path d="M0 0 C5.28 0 10.56 0 16 0 C16 2.64 16 5.28 16 8 C21.28 8 26.56 8 32 8 C32 5.36 32 2.72 32 0 C34.64 0 37.28 0 40 0 C40 18.48 40 36.96 40 56 C37.36 56 34.72 56 32 56 C32 58.64 32 61.28 32 64 C29.36 64 26.72 64 24 64 C24 61.36 24 58.72 24 56 C21.36 56 18.72 56 16 56 C16 53.36 16 50.72 16 48 C13.36 48 10.72 48 8 48 C8 50.64 8 53.28 8 56 C5.36 56 2.72 56 0 56 C0 37.52 0 19.04 0 0 Z " fill="#E2CE53" transform="translate(96,32)"/>
<path d="M0 0 C15.84 0 31.68 0 48 0 C48 31.68 48 63.36 48 96 C34.8 96 21.6 96 8 96 C8 93.36 8 90.72 8 88 C5.36 88 2.72 88 0 88 C0 58.96 0 29.92 0 0 Z M8 8 C8 31.76 8 55.52 8 80 C10.64 80 13.28 80 16 80 C16 82.64 16 85.28 16 88 C23.92 88 31.84 88 40 88 C40 61.6 40 35.2 40 8 C29.44 8 18.88 8 8 8 Z " fill="#370F02" transform="translate(48,296)"/>
<path d="M0 0 C10.56 0 21.12 0 32 0 C32 18.48 32 36.96 32 56 C24.08 56 16.16 56 8 56 C8 53.36 8 50.72 8 48 C2.72 48 -2.56 48 -8 48 C-8 34.8 -8 21.6 -8 8 C-5.36 8 -2.72 8 0 8 C0 5.36 0 2.72 0 0 Z " fill="#75350E" transform="translate(56,24)"/>
<path d="M0 0 C47.52 0 95.04 0 144 0 C144 2.64 144 5.28 144 8 C120.24 8 96.48 8 72 8 C72 15.92 72 23.84 72 32 C69.36 32 66.72 32 64 32 C64 29.36 64 26.72 64 24 C56.08 24 48.16 24 40 24 C40 29.28 40 34.56 40 40 C37.36 40 34.72 40 32 40 C32 29.44 32 18.88 32 8 C21.44 8 10.88 8 0 8 C0 5.36 0 2.72 0 0 Z " fill="#D77927" transform="translate(64,288)"/>
<path d="M0 0 C2.64 0 5.28 0 8 0 C8 26.4 8 52.8 8 80 C5.36 80 2.72 80 0 80 C0 82.64 0 85.28 0 88 C-5.28 88 -10.56 88 -16 88 C-16 61.6 -16 35.2 -16 8 C-10.72 8 -5.44 8 0 8 C0 5.36 0 2.72 0 0 Z " fill="#F5CFA0" transform="translate(368,184)"/>
<path d="M0 0 C2.64 0 5.28 0 8 0 C8 2.64 8 5.28 8 8 C13.28 8 18.56 8 24 8 C24 34.4 24 60.8 24 88 C18.72 88 13.44 88 8 88 C8 85.36 8 82.72 8 80 C5.36 80 2.72 80 0 80 C0 53.6 0 27.2 0 0 Z " fill="#F5CFA0" transform="translate(72,184)"/>
<path d="M0 0 C2.64 0 5.28 0 8 0 C8 79.2 8 158.4 8 240 C5.36 240 2.72 240 0 240 C0 160.8 0 81.6 0 0 Z " fill="#D79A3F" transform="translate(40,136)"/>
<path d="M0 0 C15.84 0 31.68 0 48 0 C48 26.4 48 52.8 48 80 C45.36 80 42.72 80 40 80 C40 56.24 40 32.48 40 8 C29.44 8 18.88 8 8 8 C8 34.4 8 60.8 8 88 C15.92 88 23.84 88 32 88 C32 90.64 32 93.28 32 96 C21.44 96 10.88 96 0 96 C0 64.32 0 32.64 0 0 Z " fill="#370F02" transform="translate(352,296)"/>
<path d="M0 0 C2.64 0 5.28 0 8 0 C8 10.56 8 21.12 8 32 C-60.64 32 -129.28 32 -200 32 C-200 29.36 -200 26.72 -200 24 C-134 24 -68 24 0 24 C0 16.08 0 8.16 0 0 Z " fill="#C66E21" transform="translate(448,104)"/>
<path d="M0 0 C2.64 0 5.28 0 8 0 C8 7.92 8 15.84 8 24 C71.36 24 134.72 24 200 24 C200 26.64 200 29.28 200 32 C134 32 68 32 0 32 C0 21.44 0 10.88 0 0 Z " fill="#C66E21" transform="translate(0,104)"/>
<path d="M0 0 C2.64 0 5.28 0 8 0 C8 2.64 8 5.28 8 8 C15.92 8 23.84 8 32 8 C32 10.64 32 13.28 32 16 C34.64 16 37.28 16 40 16 C40 26.56 40 37.12 40 48 C37.36 48 34.72 48 32 48 C32 50.64 32 53.28 32 56 C26.72 56 21.44 56 16 56 C16 53.36 16 50.72 16 48 C13.36 48 10.72 48 8 48 C8 45.36 8 42.72 8 40 C5.36 40 2.72 40 0 40 C0 26.8 0 13.6 0 0 Z " fill="#E2CE53" transform="translate(312,40)"/>
<path d="M0 0 C66 0 132 0 200 0 C200 2.64 200 5.28 200 8 C134 8 68 8 0 8 C0 5.36 0 2.72 0 0 Z " fill="#260A01" transform="translate(120,176)"/>
<path d="M0 0 C10.56 0 21.12 0 32 0 C32 2.64 32 5.28 32 8 C34.64 8 37.28 8 40 8 C40 10.64 40 13.28 40 16 C50.56 16 61.12 16 72 16 C72 18.64 72 21.28 72 24 C61.44 24 50.88 24 40 24 C40 26.64 40 29.28 40 32 C26.8 32 13.6 32 0 32 C0 21.44 0 10.88 0 0 Z " fill="#D77927" transform="translate(312,376)"/>
<path d="M0 0 C58.08 0 116.16 0 176 0 C176 2.64 176 5.28 176 8 C117.92 8 59.84 8 0 8 C0 5.36 0 2.72 0 0 Z " fill="#E2CE53" transform="translate(136,392)"/>
<path d="M0 0 C58.08 0 116.16 0 176 0 C176 2.64 176 5.28 176 8 C117.92 8 59.84 8 0 8 C0 5.36 0 2.72 0 0 Z " fill="#E2CE53" transform="translate(136,8)"/>
<path d="M0 0 C10.56 0 21.12 0 32 0 C32 13.2 32 26.4 32 40 C21.44 40 10.88 40 0 40 C0 26.8 0 13.6 0 0 Z " fill="#E2CE53" transform="translate(208,288)"/>
<path d="M0 0 C2.64 0 5.28 0 8 0 C8 2.64 8 5.28 8 8 C10.64 8 13.28 8 16 8 C16 10.64 16 13.28 16 16 C18.64 16 21.28 16 24 16 C24 13.36 24 10.72 24 8 C26.64 8 29.28 8 32 8 C32 18.56 32 29.12 32 40 C18.8 40 5.6 40 -8 40 C-8 29.44 -8 18.88 -8 8 C-5.36 8 -2.72 8 0 8 C0 5.36 0 2.72 0 0 Z " fill="#D77927" transform="translate(104,80)"/>
<path d="M0 0 C2.64 0 5.28 0 8 0 C8 2.64 8 5.28 8 8 C10.64 8 13.28 8 16 8 C16 10.64 16 13.28 16 16 C21.28 16 26.56 16 32 16 C32 13.36 32 10.72 32 8 C34.64 8 37.28 8 40 8 C40 18.56 40 29.12 40 40 C26.8 40 13.6 40 0 40 C0 26.8 0 13.6 0 0 Z " fill="#D77927" transform="translate(312,80)"/>
<path d="M0 0 C21.12 0 42.24 0 64 0 C64 5.28 64 10.56 64 16 C42.88 16 21.76 16 0 16 C0 10.72 0 5.44 0 0 Z " fill="#BE804A" transform="translate(240,304)"/>
<path d="M0 0 C23.76 0 47.52 0 72 0 C72 2.64 72 5.28 72 8 C66.72 8 61.44 8 56 8 C56 13.28 56 18.56 56 24 C50.72 24 45.44 24 40 24 C40 21.36 40 18.72 40 16 C32.08 16 24.16 16 16 16 C16 13.36 16 10.72 16 8 C10.72 8 5.44 8 0 8 C0 5.36 0 2.72 0 0 Z " fill="#BE804A" transform="translate(200,24)"/>
<path d="M0 0 C13.2 0 26.4 0 40 0 C40 7.92 40 15.84 40 24 C26.8 24 13.6 24 0 24 C0 16.08 0 8.16 0 0 Z " fill="#75350E" transform="translate(360,88)"/>
<path d="M0 0 C13.2 0 26.4 0 40 0 C40 7.92 40 15.84 40 24 C26.8 24 13.6 24 0 24 C0 16.08 0 8.16 0 0 Z " fill="#75350E" transform="translate(48,88)"/>
<path d="M0 0 C2.64 0 5.28 0 8 0 C8 23.76 8 47.52 8 72 C18.56 72 29.12 72 40 72 C40 74.64 40 77.28 40 80 C26.8 80 13.6 80 0 80 C0 53.6 0 27.2 0 0 Z " fill="#E2CE53" transform="translate(408,32)"/>
<path d="M0 0 C10.56 0 21.12 0 32 0 C32 10.56 32 21.12 32 32 C29.36 32 26.72 32 24 32 C24 29.36 24 26.72 24 24 C21.36 24 18.72 24 16 24 C16 21.36 16 18.72 16 16 C13.36 16 10.72 16 8 16 C8 21.28 8 26.56 8 32 C5.36 32 2.72 32 0 32 C0 21.44 0 10.88 0 0 Z " fill="#B97031" transform="translate(360,304)"/>
<path d="M0 0 C2.64 0 5.28 0 8 0 C8 5.28 8 10.56 8 16 C10.64 16 13.28 16 16 16 C16 10.72 16 5.44 16 0 C18.64 0 21.28 0 24 0 C24 5.28 24 10.56 24 16 C26.64 16 29.28 16 32 16 C32 18.64 32 21.28 32 24 C29.36 24 26.72 24 24 24 C24 26.64 24 29.28 24 32 C21.36 32 18.72 32 16 32 C16 34.64 16 37.28 16 40 C13.36 40 10.72 40 8 40 C8 37.36 8 34.72 8 32 C5.36 32 2.72 32 0 32 C0 26.72 0 21.44 0 16 C-2.64 16 -5.28 16 -8 16 C-8 13.36 -8 10.72 -8 8 C-5.36 8 -2.72 8 0 8 C0 5.36 0 2.72 0 0 Z " fill="#D9A463" transform="translate(280,200)"/>
<path d="M0 0 C5.28 0 10.56 0 16 0 C16 5.28 16 10.56 16 16 C13.36 16 10.72 16 8 16 C8 18.64 8 21.28 8 24 C-7.84 24 -23.68 24 -40 24 C-40 21.36 -40 18.72 -40 16 C-34.72 16 -29.44 16 -24 16 C-24 13.36 -24 10.72 -24 8 C-16.08 8 -8.16 8 0 8 C0 5.36 0 2.72 0 0 Z " fill="#BE804A" transform="translate(288,48)"/>
<path d="M0 0 C2.64 0 5.28 0 8 0 C8 26.4 8 52.8 8 80 C-2.56 80 -13.12 80 -24 80 C-24 77.36 -24 74.72 -24 72 C-16.08 72 -8.16 72 0 72 C0 48.24 0 24.48 0 0 Z " fill="#E2CE53" transform="translate(32,32)"/>
<path d="M0 0 C2.64 0 5.28 0 8 0 C8 7.92 8 15.84 8 24 C29.12 24 50.24 24 72 24 C72 26.64 72 29.28 72 32 C48.24 32 24.48 32 0 32 C0 21.44 0 10.88 0 0 Z " fill="#F1B975" transform="translate(104,224)"/>
<path d="M0 0 C10.56 0 21.12 0 32 0 C32 5.28 32 10.56 32 16 C26.72 16 21.44 16 16 16 C16 18.64 16 21.28 16 24 C13.36 24 10.72 24 8 24 C8 26.64 8 29.28 8 32 C5.36 32 2.72 32 0 32 C0 21.44 0 10.88 0 0 Z " fill="#B97031" transform="translate(56,304)"/>
<path d="M0 0 C13.2 0 26.4 0 40 0 C40 2.64 40 5.28 40 8 C34.72 8 29.44 8 24 8 C24 10.64 24 13.28 24 16 C18.72 16 13.44 16 8 16 C8 18.64 8 21.28 8 24 C2.72 24 -2.56 24 -8 24 C-8 18.72 -8 13.44 -8 8 C-5.36 8 -2.72 8 0 8 C0 5.36 0 2.72 0 0 Z " fill="#BE804A" transform="translate(152,56)"/>
<path d="M0 0 C7.92 0 15.84 0 24 0 C24 2.64 24 5.28 24 8 C29.28 8 34.56 8 40 8 C40 13.28 40 18.56 40 24 C32.08 24 24.16 24 16 24 C16 21.36 16 18.72 16 16 C10.72 16 5.44 16 0 16 C0 10.72 0 5.44 0 0 Z " fill="#BE804A" transform="translate(48,56)"/>
<path d="M0 0 C2.64 0 5.28 0 8 0 C8 2.64 8 5.28 8 8 C10.64 8 13.28 8 16 8 C16 10.64 16 13.28 16 16 C18.64 16 21.28 16 24 16 C24 13.36 24 10.72 24 8 C26.64 8 29.28 8 32 8 C32 5.36 32 2.72 32 0 C34.64 0 37.28 0 40 0 C40 10.56 40 21.12 40 32 C37.36 32 34.72 32 32 32 C32 29.36 32 26.72 32 24 C24.08 24 16.16 24 8 24 C8 21.36 8 18.72 8 16 C5.36 16 2.72 16 0 16 C0 10.72 0 5.44 0 0 Z " fill="#D7863F" transform="translate(312,24)"/>
<path d="M0 0 C21.12 0 42.24 0 64 0 C64 5.28 64 10.56 64 16 C58.72 16 53.44 16 48 16 C48 13.36 48 10.72 48 8 C32.16 8 16.32 8 0 8 C0 5.36 0 2.72 0 0 Z " fill="#BE804A" transform="translate(144,304)"/>
<path d="M0 0 C2.64 0 5.28 0 8 0 C8 26.4 8 52.8 8 80 C5.36 80 2.72 80 0 80 C0 53.6 0 27.2 0 0 Z " fill="#E2CE53" transform="translate(400,296)"/>
<path d="M0 0 C2.64 0 5.28 0 8 0 C8 26.4 8 52.8 8 80 C5.36 80 2.72 80 0 80 C0 53.6 0 27.2 0 0 Z " fill="#E2CE53" transform="translate(40,296)"/>
<path d="M0 0 C7.92 0 15.84 0 24 0 C24 2.64 24 5.28 24 8 C26.64 8 29.28 8 32 8 C32 10.64 32 13.28 32 16 C29.36 16 26.72 16 24 16 C24 18.64 24 21.28 24 24 C26.64 24 29.28 24 32 24 C32 29.28 32 34.56 32 40 C29.36 40 26.72 40 24 40 C24 37.36 24 34.72 24 32 C21.36 32 18.72 32 16 32 C16 26.72 16 21.44 16 16 C13.36 16 10.72 16 8 16 C8 13.36 8 10.72 8 8 C5.36 8 2.72 8 0 8 C0 5.36 0 2.72 0 0 Z " fill="#D9A463" transform="translate(184,200)"/>
<path d="M0 0 C2.64 0 5.28 0 8 0 C8 26.4 8 52.8 8 80 C5.36 80 2.72 80 0 80 C0 53.6 0 27.2 0 0 Z " fill="#F1B975" transform="translate(368,184)"/>
<path d="M0 0 C2.64 0 5.28 0 8 0 C8 5.28 8 10.56 8 16 C13.28 16 18.56 16 24 16 C24 21.28 24 26.56 24 32 C21.36 32 18.72 32 16 32 C16 34.64 16 37.28 16 40 C10.72 40 5.44 40 0 40 C0 26.8 0 13.6 0 0 Z " fill="#F1B975" transform="translate(104,184)"/>
<path d="M0 0 C2.64 0 5.28 0 8 0 C8 26.4 8 52.8 8 80 C5.36 80 2.72 80 0 80 C0 53.6 0 27.2 0 0 Z " fill="#F1B975" transform="translate(72,184)"/>
<path d="M0 0 C23.76 0 47.52 0 72 0 C72 2.64 72 5.28 72 8 C48.24 8 24.48 8 0 8 C0 5.36 0 2.72 0 0 Z " fill="#D7863F" transform="translate(240,288)"/>
<path d="M0 0 C21.12 0 42.24 0 64 0 C64 2.64 64 5.28 64 8 C42.88 8 21.76 8 0 8 C0 5.36 0 2.72 0 0 Z " fill="#260A01" transform="translate(184,256)"/>
<path d="M0 0 C21.12 0 42.24 0 64 0 C64 2.64 64 5.28 64 8 C42.88 8 21.76 8 0 8 C0 5.36 0 2.72 0 0 Z " fill="#F1B975" transform="translate(184,248)"/>
<path d="M0 0 C5.28 0 10.56 0 16 0 C16 10.56 16 21.12 16 32 C10.72 32 5.44 32 0 32 C0 21.44 0 10.88 0 0 Z " fill="#370F02" transform="translate(216,112)"/>
<path d="M0 0 C7.92 0 15.84 0 24 0 C24 2.64 24 5.28 24 8 C29.28 8 34.56 8 40 8 C40 10.64 40 13.28 40 16 C26.8 16 13.6 16 0 16 C0 10.72 0 5.44 0 0 Z " fill="#BE804A" transform="translate(144,96)"/>
<path d="M0 0 C10.56 0 21.12 0 32 0 C32 2.64 32 5.28 32 8 C26.72 8 21.44 8 16 8 C16 10.64 16 13.28 16 16 C10.72 16 5.44 16 0 16 C0 18.64 0 21.28 0 24 C-2.64 24 -5.28 24 -8 24 C-8 18.72 -8 13.44 -8 8 C-5.36 8 -2.72 8 0 8 C0 5.36 0 2.72 0 0 Z " fill="#BE804A" transform="translate(56,24)"/>
<path d="M0 0 C18.48 0 36.96 0 56 0 C56 2.64 56 5.28 56 8 C37.52 8 19.04 8 0 8 C0 5.36 0 2.72 0 0 Z " fill="#D7863F" transform="translate(352,288)"/>
<path d="M0 0 C18.48 0 36.96 0 56 0 C56 2.64 56 5.28 56 8 C37.52 8 19.04 8 0 8 C0 5.36 0 2.72 0 0 Z " fill="#F1B975" transform="translate(272,248)"/>
<path d="M0 0 C2.64 0 5.28 0 8 0 C8 2.64 8 5.28 8 8 C10.64 8 13.28 8 16 8 C16 10.64 16 13.28 16 16 C13.36 16 10.72 16 8 16 C8 18.64 8 21.28 8 24 C5.36 24 2.72 24 0 24 C0 26.64 0 29.28 0 32 C-2.64 32 -5.28 32 -8 32 C-8 24.08 -8 16.16 -8 8 C-5.36 8 -2.72 8 0 8 C0 5.36 0 2.72 0 0 Z " fill="#D7863F" transform="translate(104,80)"/>
<path d="M0 0 C2.64 0 5.28 0 8 0 C8 10.56 8 21.12 8 32 C5.36 32 2.72 32 0 32 C0 29.36 0 26.72 0 24 C-2.64 24 -5.28 24 -8 24 C-8 18.72 -8 13.44 -8 8 C-5.36 8 -2.72 8 0 8 C0 5.36 0 2.72 0 0 Z " fill="#E4AD5C" transform="translate(128,352)"/>
<path d="M0 0 C5.28 0 10.56 0 16 0 C16 10.56 16 21.12 16 32 C13.36 32 10.72 32 8 32 C8 26.72 8 21.44 8 16 C5.36 16 2.72 16 0 16 C0 10.72 0 5.44 0 0 Z " fill="#D7863F" transform="translate(336,304)"/>
<path d="M0 0 C5.28 0 10.56 0 16 0 C16 7.92 16 15.84 16 24 C10.72 24 5.44 24 0 24 C0 16.08 0 8.16 0 0 Z " fill="#370F02" transform="translate(216,296)"/>
<path d="M0 0 C5.28 0 10.56 0 16 0 C16 5.28 16 10.56 16 16 C5.44 16 -5.12 16 -16 16 C-16 13.36 -16 10.72 -16 8 C-10.72 8 -5.44 8 0 8 C0 5.36 0 2.72 0 0 Z " fill="#BE804A" transform="translate(288,96)"/>
<path d="M0 0 C2.64 0 5.28 0 8 0 C8 2.64 8 5.28 8 8 C10.64 8 13.28 8 16 8 C16 13.28 16 18.56 16 24 C13.36 24 10.72 24 8 24 C8 26.64 8 29.28 8 32 C5.36 32 2.72 32 0 32 C0 21.44 0 10.88 0 0 Z " fill="#D7863F" transform="translate(312,80)"/>
<path d="M0 0 C13.2 0 26.4 0 40 0 C40 2.64 40 5.28 40 8 C26.8 8 13.6 8 0 8 C0 5.36 0 2.72 0 0 Z " fill="#B97031" transform="translate(264,312)"/>
<path d="M0 0 C2.64 0 5.28 0 8 0 C8 2.64 8 5.28 8 8 C10.64 8 13.28 8 16 8 C16 13.28 16 18.56 16 24 C10.72 24 5.44 24 0 24 C0 16.08 0 8.16 0 0 Z " fill="#D7863F" transform="translate(312,296)"/>
<path d="M0 0 C5.28 0 10.56 0 16 0 C16 7.92 16 15.84 16 24 C13.36 24 10.72 24 8 24 C8 21.36 8 18.72 8 16 C5.36 16 2.72 16 0 16 C0 10.72 0 5.44 0 0 Z " fill="#D7863F" transform="translate(120,296)"/>
<path d="M0 0 C2.64 0 5.28 0 8 0 C8 2.64 8 5.28 8 8 C10.64 8 13.28 8 16 8 C16 10.64 16 13.28 16 16 C13.36 16 10.72 16 8 16 C8 21.28 8 26.56 8 32 C5.36 32 2.72 32 0 32 C0 21.44 0 10.88 0 0 Z " fill="#D7863F" transform="translate(96,296)"/>
<path d="M0 0 C13.2 0 26.4 0 40 0 C40 2.64 40 5.28 40 8 C26.8 8 13.6 8 0 8 C0 5.36 0 2.72 0 0 Z " fill="#D7863F" transform="translate(168,288)"/>
<path d="M0 0 C5.28 0 10.56 0 16 0 C16 5.28 16 10.56 16 16 C13.36 16 10.72 16 8 16 C8 18.64 8 21.28 8 24 C5.36 24 2.72 24 0 24 C0 16.08 0 8.16 0 0 Z " fill="#E4AD5C" transform="translate(96,32)"/>
<path d="M0 0 C13.2 0 26.4 0 40 0 C40 2.64 40 5.28 40 8 C26.8 8 13.6 8 0 8 C0 5.36 0 2.72 0 0 Z " fill="#E2CE53" transform="translate(352,8)"/>
<path d="M0 0 C13.2 0 26.4 0 40 0 C40 2.64 40 5.28 40 8 C26.8 8 13.6 8 0 8 C0 5.36 0 2.72 0 0 Z " fill="#E2CE53" transform="translate(56,8)"/>
<path d="M0 0 C10.56 0 21.12 0 32 0 C32 2.64 32 5.28 32 8 C21.44 8 10.88 8 0 8 C0 5.36 0 2.72 0 0 Z " fill="#E2CE53" transform="translate(352,392)"/>
<path d="M0 0 C10.56 0 21.12 0 32 0 C32 2.64 32 5.28 32 8 C21.44 8 10.88 8 0 8 C0 5.36 0 2.72 0 0 Z " fill="#E2CE53" transform="translate(64,392)"/>
<path d="M0 0 C2.64 0 5.28 0 8 0 C8 7.92 8 15.84 8 24 C5.36 24 2.72 24 0 24 C0 21.36 0 18.72 0 16 C-2.64 16 -5.28 16 -8 16 C-8 13.36 -8 10.72 -8 8 C-5.36 8 -2.72 8 0 8 C0 5.36 0 2.72 0 0 Z " fill="#E4AD5C" transform="translate(344,360)"/>
<path d="M0 0 C2.64 0 5.28 0 8 0 C8 2.64 8 5.28 8 8 C10.64 8 13.28 8 16 8 C16 13.28 16 18.56 16 24 C13.36 24 10.72 24 8 24 C8 21.36 8 18.72 8 16 C5.36 16 2.72 16 0 16 C0 10.72 0 5.44 0 0 Z " fill="#E4AD5C" transform="translate(96,360)"/>
<path d="M0 0 C10.56 0 21.12 0 32 0 C32 2.64 32 5.28 32 8 C21.44 8 10.88 8 0 8 C0 5.36 0 2.72 0 0 Z " fill="#BE804A" transform="translate(360,304)"/>
<path d="M0 0 C10.56 0 21.12 0 32 0 C32 2.64 32 5.28 32 8 C21.44 8 10.88 8 0 8 C0 5.36 0 2.72 0 0 Z " fill="#BE804A" transform="translate(56,304)"/>
<path d="M0 0 C10.56 0 21.12 0 32 0 C32 2.64 32 5.28 32 8 C21.44 8 10.88 8 0 8 C0 5.36 0 2.72 0 0 Z " fill="#E2CE53" transform="translate(136,288)"/>
<path d="M0 0 C10.56 0 21.12 0 32 0 C32 2.64 32 5.28 32 8 C21.44 8 10.88 8 0 8 C0 5.36 0 2.72 0 0 Z " fill="#E2CE53" transform="translate(64,288)"/>
<path d="M0 0 C2.64 0 5.28 0 8 0 C8 2.64 8 5.28 8 8 C10.64 8 13.28 8 16 8 C16 13.28 16 18.56 16 24 C13.36 24 10.72 24 8 24 C8 21.36 8 18.72 8 16 C5.36 16 2.72 16 0 16 C0 10.72 0 5.44 0 0 Z " fill="#D9A463" transform="translate(200,216)"/>
<path d="M0 0 C2.64 0 5.28 0 8 0 C8 7.92 8 15.84 8 24 C5.36 24 2.72 24 0 24 C0 21.36 0 18.72 0 16 C-2.64 16 -5.28 16 -8 16 C-8 13.36 -8 10.72 -8 8 C-5.36 8 -2.72 8 0 8 C0 5.36 0 2.72 0 0 Z " fill="#D7863F" transform="translate(344,88)"/>
<path d="M0 0 C2.64 0 5.28 0 8 0 C8 7.92 8 15.84 8 24 C5.36 24 2.72 24 0 24 C0 21.36 0 18.72 0 16 C-2.64 16 -5.28 16 -8 16 C-8 13.36 -8 10.72 -8 8 C-5.36 8 -2.72 8 0 8 C0 5.36 0 2.72 0 0 Z " fill="#D7863F" transform="translate(128,88)"/>
<path d="M0 0 C2.64 0 5.28 0 8 0 C8 2.64 8 5.28 8 8 C13.28 8 18.56 8 24 8 C24 10.64 24 13.28 24 16 C16.08 16 8.16 16 0 16 C0 10.72 0 5.44 0 0 Z " fill="#BE804A" transform="translate(360,48)"/>
<path d="M0 0 C2.64 0 5.28 0 8 0 C8 2.64 8 5.28 8 8 C10.64 8 13.28 8 16 8 C16 10.64 16 13.28 16 16 C13.36 16 10.72 16 8 16 C8 18.64 8 21.28 8 24 C5.36 24 2.72 24 0 24 C0 16.08 0 8.16 0 0 Z " fill="#E4AD5C" transform="translate(312,40)"/>
<path d="M0 0 C2.64 0 5.28 0 8 0 C8 5.28 8 10.56 8 16 C5.36 16 2.72 16 0 16 C0 18.64 0 21.28 0 24 C-2.64 24 -5.28 24 -8 24 C-8 18.72 -8 13.44 -8 8 C-5.36 8 -2.72 8 0 8 C0 5.36 0 2.72 0 0 Z " fill="#E4AD5C" transform="translate(128,32)"/>
<path d="M0 0 C7.92 0 15.84 0 24 0 C24 2.64 24 5.28 24 8 C21.36 8 18.72 8 16 8 C16 10.64 16 13.28 16 16 C13.36 16 10.72 16 8 16 C8 13.36 8 10.72 8 8 C5.36 8 2.72 8 0 8 C0 5.36 0 2.72 0 0 Z " fill="#BE804A" transform="translate(360,24)"/>
<path d="M0 0 C2.64 0 5.28 0 8 0 C8 5.28 8 10.56 8 16 C5.36 16 2.72 16 0 16 C0 18.64 0 21.28 0 24 C-2.64 24 -5.28 24 -8 24 C-8 18.72 -8 13.44 -8 8 C-5.36 8 -2.72 8 0 8 C0 5.36 0 2.72 0 0 Z " fill="#D7863F" transform="translate(128,16)"/>
<path d="M0 0 C5.28 0 10.56 0 16 0 C16 2.64 16 5.28 16 8 C13.36 8 10.72 8 8 8 C8 10.64 8 13.28 8 16 C5.36 16 2.72 16 0 16 C0 10.72 0 5.44 0 0 Z " fill="#D7863F" transform="translate(312,376)"/>
<path d="M0 0 C2.64 0 5.28 0 8 0 C8 2.64 8 5.28 8 8 C10.64 8 13.28 8 16 8 C16 10.64 16 13.28 16 16 C10.72 16 5.44 16 0 16 C0 10.72 0 5.44 0 0 Z " fill="#D7863F" transform="translate(120,376)"/>
<path d="M0 0 C2.64 0 5.28 0 8 0 C8 2.64 8 5.28 8 8 C10.64 8 13.28 8 16 8 C16 10.64 16 13.28 16 16 C10.72 16 5.44 16 0 16 C0 10.72 0 5.44 0 0 Z " fill="#E4AD5C" transform="translate(312,360)"/>
<path d="M0 0 C5.28 0 10.56 0 16 0 C16 2.64 16 5.28 16 8 C13.36 8 10.72 8 8 8 C8 10.64 8 13.28 8 16 C5.36 16 2.72 16 0 16 C0 10.72 0 5.44 0 0 Z " fill="#E4AD5C" transform="translate(312,320)"/>
<path d="M0 0 C2.64 0 5.28 0 8 0 C8 7.92 8 15.84 8 24 C5.36 24 2.72 24 0 24 C0 16.08 0 8.16 0 0 Z " fill="#D77927" transform="translate(448,104)"/>
<path d="M0 0 C7.92 0 15.84 0 24 0 C24 2.64 24 5.28 24 8 C16.08 8 8.16 8 0 8 C0 5.36 0 2.72 0 0 Z " fill="#BE804A" transform="translate(360,104)"/>
<path d="M0 0 C2.64 0 5.28 0 8 0 C8 7.92 8 15.84 8 24 C5.36 24 2.72 24 0 24 C0 16.08 0 8.16 0 0 Z " fill="#D77927" transform="translate(0,104)"/>
<path d="M0 0 C2.64 0 5.28 0 8 0 C8 5.28 8 10.56 8 16 C2.72 16 -2.56 16 -8 16 C-8 13.36 -8 10.72 -8 8 C-5.36 8 -2.72 8 0 8 C0 5.36 0 2.72 0 0 Z " fill="#BE804A" transform="translate(80,96)"/>
<path d="M0 0 C7.92 0 15.84 0 24 0 C24 2.64 24 5.28 24 8 C16.08 8 8.16 8 0 8 C0 5.36 0 2.72 0 0 Z " fill="#BE804A" transform="translate(376,72)"/>
<path d="M0 0 C7.92 0 15.84 0 24 0 C24 2.64 24 5.28 24 8 C16.08 8 8.16 8 0 8 C0 5.36 0 2.72 0 0 Z " fill="#BE804A" transform="translate(152,24)"/>
<path d="M0 0 C2.64 0 5.28 0 8 0 C8 2.64 8 5.28 8 8 C10.64 8 13.28 8 16 8 C16 10.64 16 13.28 16 16 C10.72 16 5.44 16 0 16 C0 10.72 0 5.44 0 0 Z " fill="#D7863F" transform="translate(96,16)"/>
<path d="M0 0 C2.64 0 5.28 0 8 0 C8 5.28 8 10.56 8 16 C5.36 16 2.72 16 0 16 C0 10.72 0 5.44 0 0 Z " fill="#D7863F" transform="translate(96,376)"/>
<path d="M0 0 C5.28 0 10.56 0 16 0 C16 2.64 16 5.28 16 8 C10.72 8 5.44 8 0 8 C0 5.36 0 2.72 0 0 Z " fill="#D7863F" transform="translate(136,288)"/>
<path d="M0 0 C5.28 0 10.56 0 16 0 C16 2.64 16 5.28 16 8 C10.72 8 5.44 8 0 8 C0 5.36 0 2.72 0 0 Z " fill="#D7863F" transform="translate(64,288)"/>
<path d="M0 0 C5.28 0 10.56 0 16 0 C16 2.64 16 5.28 16 8 C10.72 8 5.44 8 0 8 C0 5.36 0 2.72 0 0 Z " fill="#C66E21" transform="translate(48,288)"/>
<path d="M0 0 C5.28 0 10.56 0 16 0 C16 2.64 16 5.28 16 8 C10.72 8 5.44 8 0 8 C0 5.36 0 2.72 0 0 Z " fill="#F1B975" transform="translate(352,264)"/>
<path d="M0 0 C5.28 0 10.56 0 16 0 C16 2.64 16 5.28 16 8 C10.72 8 5.44 8 0 8 C0 5.36 0 2.72 0 0 Z " fill="#F1B975" transform="translate(80,264)"/>
<path d="M0 0 C2.64 0 5.28 0 8 0 C8 5.28 8 10.56 8 16 C5.36 16 2.72 16 0 16 C0 10.72 0 5.44 0 0 Z " fill="#D9A463" transform="translate(160,208)"/>
<path d="M0 0 C2.64 0 5.28 0 8 0 C8 5.28 8 10.56 8 16 C5.36 16 2.72 16 0 16 C0 10.72 0 5.44 0 0 Z " fill="#F5CFA0" transform="translate(152,208)"/>
<path d="M0 0 C2.64 0 5.28 0 8 0 C8 5.28 8 10.56 8 16 C5.36 16 2.72 16 0 16 C0 10.72 0 5.44 0 0 Z " fill="#D9A463" transform="translate(144,208)"/>
<path d="M0 0 C2.64 0 5.28 0 8 0 C8 5.28 8 10.56 8 16 C5.36 16 2.72 16 0 16 C0 10.72 0 5.44 0 0 Z " fill="#D9A463" transform="translate(296,200)"/>
<path d="M0 0 C2.64 0 5.28 0 8 0 C8 5.28 8 10.56 8 16 C5.36 16 2.72 16 0 16 C0 10.72 0 5.44 0 0 Z " fill="#260A01" transform="translate(112,184)"/>
<path d="M0 0 C5.28 0 10.56 0 16 0 C16 2.64 16 5.28 16 8 C10.72 8 5.44 8 0 8 C0 5.36 0 2.72 0 0 Z " fill="#F1B975" transform="translate(352,168)"/>
<path d="M0 0 C5.28 0 10.56 0 16 0 C16 2.64 16 5.28 16 8 C10.72 8 5.44 8 0 8 C0 5.36 0 2.72 0 0 Z " fill="#F5C58B" transform="translate(80,168)"/>
<path d="M0 0 C5.28 0 10.56 0 16 0 C16 2.64 16 5.28 16 8 C10.72 8 5.44 8 0 8 C0 5.36 0 2.72 0 0 Z " fill="#E4AD5C" transform="translate(328,88)"/>
<path d="M0 0 C5.28 0 10.56 0 16 0 C16 2.64 16 5.28 16 8 C10.72 8 5.44 8 0 8 C0 5.36 0 2.72 0 0 Z " fill="#75350E" transform="translate(48,72)"/>
<path d="M0 0 C2.64 0 5.28 0 8 0 C8 2.64 8 5.28 8 8 C5.36 8 2.72 8 0 8 C0 5.36 0 2.72 0 0 Z " fill="#E2CE53" transform="translate(384,384)"/>
<path d="M0 0 C2.64 0 5.28 0 8 0 C8 2.64 8 5.28 8 8 C5.36 8 2.72 8 0 8 C0 5.36 0 2.72 0 0 Z " fill="#D7863F" transform="translate(344,384)"/>
<path d="M0 0 C2.64 0 5.28 0 8 0 C8 2.64 8 5.28 8 8 C5.36 8 2.72 8 0 8 C0 5.36 0 2.72 0 0 Z " fill="#E2CE53" transform="translate(56,384)"/>
<path d="M0 0 C2.64 0 5.28 0 8 0 C8 2.64 8 5.28 8 8 C5.36 8 2.72 8 0 8 C0 5.36 0 2.72 0 0 Z " fill="#E2CE53" transform="translate(392,376)"/>
<path d="M0 0 C2.64 0 5.28 0 8 0 C8 2.64 8 5.28 8 8 C5.36 8 2.72 8 0 8 C0 5.36 0 2.72 0 0 Z " fill="#370F02" transform="translate(384,376)"/>
<path d="M0 0 C2.64 0 5.28 0 8 0 C8 2.64 8 5.28 8 8 C5.36 8 2.72 8 0 8 C0 5.36 0 2.72 0 0 Z " fill="#D7863F" transform="translate(336,376)"/>
<path d="M0 0 C2.64 0 5.28 0 8 0 C8 2.64 8 5.28 8 8 C5.36 8 2.72 8 0 8 C0 5.36 0 2.72 0 0 Z " fill="#E2CE53" transform="translate(48,376)"/>
<path d="M0 0 C2.64 0 5.28 0 8 0 C8 2.64 8 5.28 8 8 C5.36 8 2.72 8 0 8 C0 5.36 0 2.72 0 0 Z " fill="#D7863F" transform="translate(112,368)"/>
<path d="M0 0 C2.64 0 5.28 0 8 0 C8 2.64 8 5.28 8 8 C5.36 8 2.72 8 0 8 C0 5.36 0 2.72 0 0 Z " fill="#BE804A" transform="translate(248,328)"/>
<path d="M0 0 C2.64 0 5.28 0 8 0 C8 2.64 8 5.28 8 8 C5.36 8 2.72 8 0 8 C0 5.36 0 2.72 0 0 Z " fill="#BE804A" transform="translate(360,320)"/>
<path d="M0 0 C2.64 0 5.28 0 8 0 C8 2.64 8 5.28 8 8 C5.36 8 2.72 8 0 8 C0 5.36 0 2.72 0 0 Z " fill="#E4AD5C" transform="translate(328,312)"/>
<path d="M0 0 C2.64 0 5.28 0 8 0 C8 2.64 8 5.28 8 8 C5.36 8 2.72 8 0 8 C0 5.36 0 2.72 0 0 Z " fill="#E4AD5C" transform="translate(104,312)"/>
<path d="M0 0 C2.64 0 5.28 0 8 0 C8 2.64 8 5.28 8 8 C5.36 8 2.72 8 0 8 C0 5.36 0 2.72 0 0 Z " fill="#E2CE53" transform="translate(304,288)"/>
<path d="M0 0 C2.64 0 5.28 0 8 0 C8 2.64 8 5.28 8 8 C5.36 8 2.72 8 0 8 C0 5.36 0 2.72 0 0 Z " fill="#E2CE53" transform="translate(288,288)"/>
<path d="M0 0 C2.64 0 5.28 0 8 0 C8 2.64 8 5.28 8 8 C5.36 8 2.72 8 0 8 C0 5.36 0 2.72 0 0 Z " fill="#E2CE53" transform="translate(136,288)"/>
<path d="M0 0 C2.64 0 5.28 0 8 0 C8 2.64 8 5.28 8 8 C5.36 8 2.72 8 0 8 C0 5.36 0 2.72 0 0 Z " fill="#E2CE53" transform="translate(64,288)"/>
<path d="M0 0 C2.64 0 5.28 0 8 0 C8 2.64 8 5.28 8 8 C5.36 8 2.72 8 0 8 C0 5.36 0 2.72 0 0 Z " fill="#D7863F" transform="translate(40,288)"/>
<path d="M0 0 C2.64 0 5.28 0 8 0 C8 2.64 8 5.28 8 8 C5.36 8 2.72 8 0 8 C0 5.36 0 2.72 0 0 Z " fill="#75350E" transform="translate(376,272)"/>
<path d="M0 0 C2.64 0 5.28 0 8 0 C8 2.64 8 5.28 8 8 C5.36 8 2.72 8 0 8 C0 5.36 0 2.72 0 0 Z " fill="#75350E" transform="translate(64,272)"/>
<path d="M0 0 C2.64 0 5.28 0 8 0 C8 2.64 8 5.28 8 8 C5.36 8 2.72 8 0 8 C0 5.36 0 2.72 0 0 Z " fill="#F1B975" transform="translate(336,248)"/>
<path d="M0 0 C2.64 0 5.28 0 8 0 C8 2.64 8 5.28 8 8 C5.36 8 2.72 8 0 8 C0 5.36 0 2.72 0 0 Z " fill="#260A01" transform="translate(264,248)"/>
<path d="M0 0 C2.64 0 5.28 0 8 0 C8 2.64 8 5.28 8 8 C5.36 8 2.72 8 0 8 C0 5.36 0 2.72 0 0 Z " fill="#260A01" transform="translate(248,248)"/>
<path d="M0 0 C2.64 0 5.28 0 8 0 C8 2.64 8 5.28 8 8 C5.36 8 2.72 8 0 8 C0 5.36 0 2.72 0 0 Z " fill="#260A01" transform="translate(176,248)"/>
<path d="M0 0 C2.64 0 5.28 0 8 0 C8 2.64 8 5.28 8 8 C5.36 8 2.72 8 0 8 C0 5.36 0 2.72 0 0 Z " fill="#F1B975" transform="translate(328,240)"/>
<path d="M0 0 C2.64 0 5.28 0 8 0 C8 2.64 8 5.28 8 8 C5.36 8 2.72 8 0 8 C0 5.36 0 2.72 0 0 Z " fill="#F1B975" transform="translate(264,240)"/>
<path d="M0 0 C2.64 0 5.28 0 8 0 C8 2.64 8 5.28 8 8 C5.36 8 2.72 8 0 8 C0 5.36 0 2.72 0 0 Z " fill="#260A01" transform="translate(256,240)"/>
<path d="M0 0 C2.64 0 5.28 0 8 0 C8 2.64 8 5.28 8 8 C5.36 8 2.72 8 0 8 C0 5.36 0 2.72 0 0 Z " fill="#F1B975" transform="translate(248,240)"/>
<path d="M0 0 C2.64 0 5.28 0 8 0 C8 2.64 8 5.28 8 8 C5.36 8 2.72 8 0 8 C0 5.36 0 2.72 0 0 Z " fill="#F1B975" transform="translate(176,240)"/>
<path d="M0 0 C2.64 0 5.28 0 8 0 C8 2.64 8 5.28 8 8 C5.36 8 2.72 8 0 8 C0 5.36 0 2.72 0 0 Z " fill="#F1B975" transform="translate(336,232)"/>
<path d="M0 0 C2.64 0 5.28 0 8 0 C8 2.64 8 5.28 8 8 C5.36 8 2.72 8 0 8 C0 5.36 0 2.72 0 0 Z " fill="#D9A463" transform="translate(304,232)"/>
<path d="M0 0 C2.64 0 5.28 0 8 0 C8 2.64 8 5.28 8 8 C5.36 8 2.72 8 0 8 C0 5.36 0 2.72 0 0 Z " fill="#D9A463" transform="translate(288,232)"/>
<path d="M0 0 C2.64 0 5.28 0 8 0 C8 2.64 8 5.28 8 8 C5.36 8 2.72 8 0 8 C0 5.36 0 2.72 0 0 Z " fill="#F1B975" transform="translate(256,232)"/>
<path d="M0 0 C2.64 0 5.28 0 8 0 C8 2.64 8 5.28 8 8 C5.36 8 2.72 8 0 8 C0 5.36 0 2.72 0 0 Z " fill="#D9A463" transform="translate(144,232)"/>
<path d="M0 0 C2.64 0 5.28 0 8 0 C8 2.64 8 5.28 8 8 C5.36 8 2.72 8 0 8 C0 5.36 0 2.72 0 0 Z " fill="#F1B975" transform="translate(328,224)"/>
<path d="M0 0 C2.64 0 5.28 0 8 0 C8 2.64 8 5.28 8 8 C5.36 8 2.72 8 0 8 C0 5.36 0 2.72 0 0 Z " fill="#D9A463" transform="translate(296,224)"/>
<path d="M0 0 C2.64 0 5.28 0 8 0 C8 2.64 8 5.28 8 8 C5.36 8 2.72 8 0 8 C0 5.36 0 2.72 0 0 Z " fill="#F5CFA0" transform="translate(288,224)"/>
<path d="M0 0 C2.64 0 5.28 0 8 0 C8 2.64 8 5.28 8 8 C5.36 8 2.72 8 0 8 C0 5.36 0 2.72 0 0 Z " fill="#D9A463" transform="translate(224,224)"/>
<path d="M0 0 C2.64 0 5.28 0 8 0 C8 2.64 8 5.28 8 8 C5.36 8 2.72 8 0 8 C0 5.36 0 2.72 0 0 Z " fill="#D9A463" transform="translate(168,224)"/>
<path d="M0 0 C2.64 0 5.28 0 8 0 C8 2.64 8 5.28 8 8 C5.36 8 2.72 8 0 8 C0 5.36 0 2.72 0 0 Z " fill="#D9A463" transform="translate(152,224)"/>
<path d="M0 0 C2.64 0 5.28 0 8 0 C8 2.64 8 5.28 8 8 C5.36 8 2.72 8 0 8 C0 5.36 0 2.72 0 0 Z " fill="#D9A463" transform="translate(136,224)"/>
<path d="M0 0 C2.64 0 5.28 0 8 0 C8 2.64 8 5.28 8 8 C5.36 8 2.72 8 0 8 C0 5.36 0 2.72 0 0 Z " fill="#D9A463" transform="translate(304,216)"/>
<path d="M0 0 C2.64 0 5.28 0 8 0 C8 2.64 8 5.28 8 8 C5.36 8 2.72 8 0 8 C0 5.36 0 2.72 0 0 Z " fill="#F5CFA0" transform="translate(296,216)"/>
<path d="M0 0 C2.64 0 5.28 0 8 0 C8 2.64 8 5.28 8 8 C5.36 8 2.72 8 0 8 C0 5.36 0 2.72 0 0 Z " fill="#D9A463" transform="translate(264,216)"/>
<path d="M0 0 C2.64 0 5.28 0 8 0 C8 2.64 8 5.28 8 8 C5.36 8 2.72 8 0 8 C0 5.36 0 2.72 0 0 Z " fill="#D9A463" transform="translate(232,216)"/>
<path d="M0 0 C2.64 0 5.28 0 8 0 C8 2.64 8 5.28 8 8 C5.36 8 2.72 8 0 8 C0 5.36 0 2.72 0 0 Z " fill="#F1B975" transform="translate(112,216)"/>
<path d="M0 0 C2.64 0 5.28 0 8 0 C8 2.64 8 5.28 8 8 C5.36 8 2.72 8 0 8 C0 5.36 0 2.72 0 0 Z " fill="#F5CFA0" transform="translate(104,216)"/>
<path d="M0 0 C2.64 0 5.28 0 8 0 C8 2.64 8 5.28 8 8 C5.36 8 2.72 8 0 8 C0 5.36 0 2.72 0 0 Z " fill="#F5CFA0" transform="translate(336,208)"/>
<path d="M0 0 C2.64 0 5.28 0 8 0 C8 2.64 8 5.28 8 8 C5.36 8 2.72 8 0 8 C0 5.36 0 2.72 0 0 Z " fill="#D9A463" transform="translate(240,208)"/>
<path d="M0 0 C2.64 0 5.28 0 8 0 C8 2.64 8 5.28 8 8 C5.36 8 2.72 8 0 8 C0 5.36 0 2.72 0 0 Z " fill="#D9A463" transform="translate(224,208)"/>
<path d="M0 0 C2.64 0 5.28 0 8 0 C8 2.64 8 5.28 8 8 C5.36 8 2.72 8 0 8 C0 5.36 0 2.72 0 0 Z " fill="#D9A463" transform="translate(208,208)"/>
<path d="M0 0 C2.64 0 5.28 0 8 0 C8 2.64 8 5.28 8 8 C5.36 8 2.72 8 0 8 C0 5.36 0 2.72 0 0 Z " fill="#F5CFA0" transform="translate(200,208)"/>
<path d="M0 0 C2.64 0 5.28 0 8 0 C8 2.64 8 5.28 8 8 C5.36 8 2.72 8 0 8 C0 5.36 0 2.72 0 0 Z " fill="#F1B975" transform="translate(120,208)"/>
<path d="M0 0 C2.64 0 5.28 0 8 0 C8 2.64 8 5.28 8 8 C5.36 8 2.72 8 0 8 C0 5.36 0 2.72 0 0 Z " fill="#F5CFA0" transform="translate(112,208)"/>
<path d="M0 0 C2.64 0 5.28 0 8 0 C8 2.64 8 5.28 8 8 C5.36 8 2.72 8 0 8 C0 5.36 0 2.72 0 0 Z " fill="#F1B975" transform="translate(104,208)"/>
<path d="M0 0 C2.64 0 5.28 0 8 0 C8 2.64 8 5.28 8 8 C5.36 8 2.72 8 0 8 C0 5.36 0 2.72 0 0 Z " fill="#F5CFA0" transform="translate(328,200)"/>
<path d="M0 0 C2.64 0 5.28 0 8 0 C8 2.64 8 5.28 8 8 C5.36 8 2.72 8 0 8 C0 5.36 0 2.72 0 0 Z " fill="#D9A463" transform="translate(264,200)"/>
<path d="M0 0 C2.64 0 5.28 0 8 0 C8 2.64 8 5.28 8 8 C5.36 8 2.72 8 0 8 C0 5.36 0 2.72 0 0 Z " fill="#D9A463" transform="translate(232,200)"/>
<path d="M0 0 C2.64 0 5.28 0 8 0 C8 2.64 8 5.28 8 8 C5.36 8 2.72 8 0 8 C0 5.36 0 2.72 0 0 Z " fill="#D9A463" transform="translate(152,200)"/>
<path d="M0 0 C2.64 0 5.28 0 8 0 C8 2.64 8 5.28 8 8 C5.36 8 2.72 8 0 8 C0 5.36 0 2.72 0 0 Z " fill="#F5CFA0" transform="translate(120,200)"/>
<path d="M0 0 C2.64 0 5.28 0 8 0 C8 2.64 8 5.28 8 8 C5.36 8 2.72 8 0 8 C0 5.36 0 2.72 0 0 Z " fill="#F1B975" transform="translate(112,200)"/>
<path d="M0 0 C2.64 0 5.28 0 8 0 C8 2.64 8 5.28 8 8 C5.36 8 2.72 8 0 8 C0 5.36 0 2.72 0 0 Z " fill="#F5CFA0" transform="translate(104,200)"/>
<path d="M0 0 C2.64 0 5.28 0 8 0 C8 2.64 8 5.28 8 8 C5.36 8 2.72 8 0 8 C0 5.36 0 2.72 0 0 Z " fill="#F5CFA0" transform="translate(128,192)"/>
<path d="M0 0 C2.64 0 5.28 0 8 0 C8 2.64 8 5.28 8 8 C5.36 8 2.72 8 0 8 C0 5.36 0 2.72 0 0 Z " fill="#260A01" transform="translate(320,184)"/>
<path d="M0 0 C2.64 0 5.28 0 8 0 C8 2.64 8 5.28 8 8 C5.36 8 2.72 8 0 8 C0 5.36 0 2.72 0 0 Z " fill="#F1B975" transform="translate(80,168)"/>
<path d="M0 0 C2.64 0 5.28 0 8 0 C8 2.64 8 5.28 8 8 C5.36 8 2.72 8 0 8 C0 5.36 0 2.72 0 0 Z " fill="#E4AD5C" transform="translate(344,80)"/>
<path d="M0 0 C2.64 0 5.28 0 8 0 C8 2.64 8 5.28 8 8 C5.36 8 2.72 8 0 8 C0 5.36 0 2.72 0 0 Z " fill="#E2CE53" transform="translate(400,24)"/>
<path d="M0 0 C2.64 0 5.28 0 8 0 C8 2.64 8 5.28 8 8 C5.36 8 2.72 8 0 8 C0 5.36 0 2.72 0 0 Z " fill="#370F02" transform="translate(48,24)"/>
<path d="M0 0 C2.64 0 5.28 0 8 0 C8 2.64 8 5.28 8 8 C5.36 8 2.72 8 0 8 C0 5.36 0 2.72 0 0 Z " fill="#E2CE53" transform="translate(40,24)"/>
<path d="M0 0 C2.64 0 5.28 0 8 0 C8 2.64 8 5.28 8 8 C5.36 8 2.72 8 0 8 C0 5.36 0 2.72 0 0 Z " fill="#E2CE53" transform="translate(392,16)"/>
<path d="M0 0 C2.64 0 5.28 0 8 0 C8 2.64 8 5.28 8 8 C5.36 8 2.72 8 0 8 C0 5.36 0 2.72 0 0 Z " fill="#E2CE53" transform="translate(48,16)"/>
</svg>
